<svg height="512" viewBox="0 0 512 512" width="512" xmlns="http://www.w3.org/2000/svg"><g id="Solid"><path d="m189.657 322.344a19.651 19.651 0 0 0 -24.733-2.45l-21.053 14.035 34.2 34.2 14.035-21.053a19.652 19.652 0 0 0 -2.449-24.732zm-14.344 26.343a12 12 0 1 1 12-12 12.013 12.013 0 0 1 -12 12z"/><path d="m59.716 307.716h63.196v17.94h-63.196z" transform="matrix(.707 -.707 .707 .707 -197.192 157.335)"/><path d="m283.717 83.716h63.195v17.94h-63.195z" transform="matrix(.707 -.707 .707 .707 26.821 250.119)"/><path d="m320.971 191.03a19.657 19.657 0 0 0 24.732 2.449l21.053-14.036-34.2-34.2-14.035 21.057a19.655 19.655 0 0 0 2.45 24.73zm14.342-26.343a12 12 0 1 1 -12 12 12.012 12.012 0 0 1 12-12z"/><path d="m358.343 96.119h17.941v97.136h-17.941z" transform="matrix(.707 -.707 .707 .707 5.275 302.108)"/><path d="m134.343 320.119h17.941v97.136h-17.941z" transform="matrix(.707 -.707 .707 .707 -218.725 209.324)"/><path d="m379.313 201.372 4.687-4.685-5.706-5.706-23.715 15.81a35.6 35.6 0 0 1 -49.369-49.369l15.81-23.715-5.707-5.707-4.685 4.686a16.021 16.021 0 0 1 -22.628 0l-12.686-12.686-156.686 156.686 12.686 12.686a16 16 0 0 1 0 22.628l-4.686 4.687 5.7 5.7 23.716-15.811a35.6 35.6 0 0 1 49.37 49.37l-15.811 23.716 5.7 5.705 4.697-4.681a16 16 0 0 1 22.628 0l12.686 12.686 156.686-156.686-12.687-12.686a16.02 16.02 0 0 1 0-22.628z"/><path d="m387.716 187.716h63.195v17.94h-63.195z" transform="matrix(.707 -.707 .707 .707 -16.264 354.108)"/><path d="m397.49 32a81.892 81.892 0 0 0 -54.749 20.8l12.573 12.573a16 16 0 0 1 0 22.628l-4.686 4.687 68.685 68.685 4.687-4.687a16 16 0 0 1 22.628 0l12.572 12.573a82.5 82.5 0 0 0 -61.71-137.259z"/><path d="m155.313 425.372 4.687-4.685-68.687-68.687-4.685 4.686a16.021 16.021 0 0 1 -22.628 0l-12.473-12.472a82.491 82.491 0 0 0 116.259 116.259l-12.473-12.473a16.02 16.02 0 0 1 0-22.628z"/><path d="m163.716 411.716h63.196v17.94h-63.196z" transform="matrix(.707 -.707 .707 .707 -240.27 261.341)"/></g></svg>